<!-- Generated by IcoMoon.io -->
<svg version="1.1" xmlns="http://www.w3.org/2000/svg" width="40" height="32" viewBox="0 0 40 32">
<title>business-time</title>
<path d="M31 14c4.974 0 9 4.026 9 9s-4.026 9-9 9-9-4.026-9-9 4.026-9 9-9zM35 23.393v-0.786c0-0.334-0.273-0.607-0.607-0.607h-2.393v-3.393c0-0.334-0.273-0.607-0.607-0.607h-0.786c-0.334 0-0.607 0.273-0.607 0.607v4.786c0 0.334 0.273 0.607 0.607 0.607h3.786c0.334 0 0.607-0.273 0.607-0.607zM31 12c-2.346 0-4.518 0.744-6.305 2h-24.695v-5c0-1.6 1.4-3 3-3h5v-3c0-1.6 1.4-3 3-3h10c1.6 0 3 1.4 3 3v3h5c1.6 0 3 1.4 3 3v3.051c-0.33-0.030-0.662-0.051-1-0.051zM20 6v-2h-8v2h8zM20.426 20c-0.271 0.955-0.426 1.959-0.426 3 0 1.801 0.444 3.497 1.214 5h-18.214c-1.6 0-3-1.4-3-3v-9h12v3c0 0.552 0.447 1 1 1h7.426z"></path>
</svg>
