<!-- Generated by IcoMoon.io -->
<svg version="1.1" xmlns="http://www.w3.org/2000/svg" width="40" height="32" viewBox="0 0 40 32">
<title>code</title>
<path d="M17.431 31.969l-3.813-1.106c-0.4-0.113-0.625-0.531-0.512-0.931l8.531-29.387c0.113-0.4 0.531-0.625 0.931-0.512l3.813 1.106c0.4 0.113 0.625 0.531 0.512 0.931l-8.531 29.387c-0.119 0.4-0.531 0.631-0.931 0.512zM10.306 24.956c-0.281 0.306-0.756 0.319-1.063 0.031l-9.006-8.444c-0.319-0.294-0.319-0.8 0-1.094l9.006-8.438c0.306-0.288 0.781-0.269 1.063 0.031l2.719 2.9c0.294 0.306 0.269 0.794-0.050 1.075l-5.662 4.981 5.662 4.981c0.319 0.281 0.338 0.769 0.050 1.075zM30.756 24.994c-0.306 0.281-0.781 0.269-1.063-0.038l-2.719-2.9c-0.294-0.306-0.269-0.794 0.050-1.075l5.662-4.981-5.662-4.988c-0.319-0.281-0.338-0.769-0.050-1.075l2.719-2.9c0.288-0.3 0.762-0.313 1.063-0.031l9.006 8.45c0.319 0.294 0.319 0.8 0 1.094z"></path>
</svg>
