<svg xmlns="http://www.w3.org/2000/svg" viewBox="0 0 89 32" id="basic_heart">
  <path id="basic_heart" d="M1124.56,8143.788c2.021,0,7.14.345,11.026,3.54a13.865,13.865,0,0,1,3.592,4.494,12.564,12.564,0,0,1,3.623-4.529c4.4-3.35,10.476-3.488,10.733-3.493h.066a15.9,15.9,0,0,1,7.824,2.806,14.258,14.258,0,0,1,4.25,4.707,16.651,16.651,0,0,1,2.137,9.757,15.752,15.752,0,0,1-.977,4.375,44.882,44.882,0,0,1-3.9,7.892,49.811,49.811,0,0,1-5.7,7.1l-.011.011a94.477,94.477,0,0,1-7.765,6.783c-4.26,3.313-9.288,6.513-9.5,6.648l-.8.507-.8-.5c-.215-.135-5.315-3.336-9.57-6.653a85.471,85.471,0,0,1-7.672-6.787,47,47,0,0,1-5.8-7.106,40.788,40.788,0,0,1-3.821-7.94,18.454,18.454,0,0,1,1.06-14.049,14.321,14.321,0,0,1,7.066-6.4,14.6,14.6,0,0,1,4.286-1.144h.015C1123.945,8143.8,1124.176,8143.788,1124.56,8143.788Zm13.095,13.351a10.121,10.121,0,0,0-.585-2.626,10.942,10.942,0,0,0-3.39-4.868c-3.225-2.651-7.8-2.857-9.121-2.857-.244,0-.4.007-.446.009a11.95,11.95,0,0,0-3.41.95,11.194,11.194,0,0,0-5.51,5.023,15.526,15.526,0,0,0-.878,11.613l.013.038a38.367,38.367,0,0,0,3.511,7.3,44.7,44.7,0,0,0,5.39,6.6l.018.019a83.777,83.777,0,0,0,7.382,6.529c3.162,2.464,6.907,4.928,8.518,5.966,1.6-1.042,5.3-3.505,8.468-5.967a93.139,93.139,0,0,0,7.485-6.536,47.554,47.554,0,0,0,5.3-6.606,42.321,42.321,0,0,0,3.619-7.329l.017-.048.015-.033a12.881,12.881,0,0,0,.774-3.606,13.482,13.482,0,0,0-1.759-7.9,11.205,11.205,0,0,0-3.334-3.717,13.239,13.239,0,0,0-6.194-2.287c-.5.018-5.49.262-8.925,2.879-3.49,2.659-3.967,7.487-3.971,7.536l-2.993-.083Z" transform="translate(-1110.569 -8143.788)"/>
</svg>
