
<svg xmlns="http://www.w3.org/2000/svg" width="42" height="42" viewBox="0 0 89 32" id="basic_map">
  <path d="M1363.473,8193.25l-.288-.111v.056l-2.055-.853-.279-.108-.013-.013-16.662-6.91-20.123,7.838.236-42.353v-.011a1.515,1.515,0,0,1,.908-1.419c.053-.025.119-.055.207-.092.142-.061.342-.144.612-.252.482-.195,1.188-.475,2.1-.833,1.529-.6,3.66-1.429,6.334-2.463,4.271-1.652,8.594-3.312,9.148-3.524l.018-.008.928-.387.536.536c1.454.65,10.406,4.275,16.671,6.795l19.73-7.744v43.246l-.853.408Zm-.284-3.328.159.062,15.131-7.236v-36.955l-15.238,5.981Zm-35.906-38.18-.206,37.008,15.612-6.08c-.013-2.813-.049-10.947-.068-19-.014-5.82-.018-10.46-.01-13.794,0-1.7.011-3.072.021-4.091C1336.86,8148,1329.7,8150.771,1327.283,8151.743Zm18.406,30.944c1.513.623,4.662,1.92,7.788,3.211,2.533,1.046,4.557,1.885,6.013,2.491l.7.292.051-36.918c-1.517-.611-4.649-1.873-7.764-3.136-2.536-1.028-4.565-1.855-6.031-2.46l-.817-.337C1345.574,8151.894,1345.627,8169.78,1345.688,8182.687Z" transform="translate(-1324.052 -8141.393)"/>
</svg>
