<svg xmlns="http://www.w3.org/2000/svg" width="42" height="42" viewBox="0 0 89 32" id="basic_watch">
  <g id="basic_watch" transform="translate(-1192.68 -7317.774)">
    <path id="Path_51" data-name="Path 51" d="M1295.844,8196.271l-.546-.123c-1.525,0-14.156,0-20.936,0h-1.5v-14.416a22.061,22.061,0,0,1-3.384-3.6,19.8,19.8,0,0,1-2.68-4.817,16.837,16.837,0,0,1-1.111-6.5,18.45,18.45,0,0,1,4-10.882,19.818,19.818,0,0,1,3.174-3.23v-10.934h-.06v-3h22.668l.013,1.5,1.487.009c0,.171,0,7.861,0,12.47a21.059,21.059,0,0,1,3.013,3.317,19.62,19.62,0,0,1,3.88,10.726,16.464,16.464,0,0,1-1.005,6.394,20.108,20.108,0,0,1-2.579,4.824,22.844,22.844,0,0,1-3.308,3.692c0,1.173.007,3.654.01,6.114,0,1.979,0,3.557,0,4.69,0,.675,0,1.2,0,1.555,0,.193,0,.345,0,.449a1.568,1.568,0,0,1-.567,1.307Zm-19.982-54.5v12.486l-.668.445a15.771,15.771,0,0,0-3.208,3.164,15.256,15.256,0,0,0-3.3,9.037c-.229,7.908,6.485,12.838,6.553,12.887l.623.449v12.906l14.113,0h4.007c.005-2.6,0-8.162-.012-12.133l0-.74.586-.452a18.92,18.92,0,0,0,3.34-3.631,14.682,14.682,0,0,0,2.972-9.262,17.469,17.469,0,0,0-6.294-12.271l-.6-.45v-12.435Z" transform="translate(-73 -821)"/>
    <path id="Path_52" data-name="Path 52" d="M1290.765,8172.809c-.016-.008-1.652-.777-3.285-1.569-.964-.467-1.741-.851-2.309-1.141-1.162-.594-1.459-.775-1.707-1.188-.236-.394-.265-.641-.279-2.4-.006-.833,0-1.971.007-3.385.019-2.4.057-4.8.058-4.824l3,.048c-.056,3.512-.086,7.372-.055,8.9,1.1.577,3.594,1.781,5.848,2.842Z" transform="translate(-73 -821)"/>
    <path id="Path_53" data-name="Path 53" d="M-.165,2.1-1.943-.314C-1.719-.479,3.6-4.343,9.275-4.343c5.656,0,11.1,3.745,11.328,3.9L18.889,2.023c-.047-.033-4.912-3.367-9.614-3.367S-.118,2.068-.165,2.1Z" transform="translate(1202.5 7331.5)"/>
    <path id="Path_54" data-name="Path 54" d="M9.275,1.843c-5.649,0-11-3.616-11.222-3.769L-.254-4.4c.048.032,4.822,3.246,9.529,3.246,4.753,0,9.825-3.235,9.876-3.268L20.777-1.9C20.54-1.75,14.9,1.843,9.275,1.843Z" transform="translate(1202.5 7363.237)"/>
  </g>
</svg>
