<svg xmlns="http://www.w3.org/2000/svg" width="42" height="42" viewBox="0 3 89 32" id="basic_world">
  <g transform="translate(-1318.935 -7314.367)">
    <path id="Path_46" data-name="Path 46" d="M1419.435,8192.745a3.752,3.752,0,0,1-.488-.027,25.216,25.216,0,0,1-5.654-.961,29.648,29.648,0,0,1-5.813-2.351,31.578,31.578,0,0,1-6.273-4.412,27.629,27.629,0,0,1-5.606-6.987,28.365,28.365,0,0,1-2.7-6.69,25.7,25.7,0,0,1-.907-6.965,20.853,20.853,0,0,1,.518-6.318,27.048,27.048,0,0,1,2.332-6.411,31.194,31.194,0,0,1,5.187-7.246,29.334,29.334,0,0,1,7.175-5.551,28.192,28.192,0,0,1,6.669-2.613,25.983,25.983,0,0,1,5.587-.79,2.374,2.374,0,0,1,1.037,0c.088,0,.159.007.212.01.187-.008.607-.019,1.215,0l.271-.007a2.345,2.345,0,0,1,.617.051,29.472,29.472,0,0,1,4.855.744,28.9,28.9,0,0,1,6.661,2.476,26.848,26.848,0,0,1,6.961,5.214,28.626,28.626,0,0,1,4.978,7.063,29.729,29.729,0,0,1,2.352,6.575,26.221,26.221,0,0,1,.724,6.751,24.991,24.991,0,0,1-.8,6.673,28.752,28.752,0,0,1-7.628,13.5,28.009,28.009,0,0,1-13.565,7.529,24.91,24.91,0,0,1-6.666.689c-.222.021-.5.036-.818.04C1419.724,8192.74,1419.577,8192.745,1419.435,8192.745Zm2.763-54-.036,50.892a31.36,31.36,0,0,0,5.858-7.189,30.931,30.931,0,0,0,3.621-7.682c.166-.69.325-1.321.464-1.878a29.048,29.048,0,0,0,1.155-7.386,22.776,22.776,0,0,0-.345-5.969c-.048-.284-.1-.593-.157-.938a50,50,0,0,0-1.1-4.986l-.034-.118-.007-.064c-.045-.212-.673-2.919-4.7-9.211A22.3,22.3,0,0,0,1422.2,8138.748Zm-12.291,36.077a33.5,33.5,0,0,0,4.461,8.9c.955,1.248,1.479,1.947,1.825,2.41a13.4,13.4,0,0,0,1.182,1.435c.176.2.4.441.689.764a13.7,13.7,0,0,0,1.1,1.086l.036-50.824-.019.017a25.586,25.586,0,0,0-4.686,5.616c-3.9,6.02-4.572,9.067-4.605,9.229l-.192,1.269-.31-.006a38.61,38.61,0,0,0-1.3,9.582,35.38,35.38,0,0,0,1.509,9.224c.1.36.178.644.231.864A3.166,3.166,0,0,1,1409.906,8174.824Zm4.578-35.671a25.459,25.459,0,0,0-12.279,7.29c-8.3,8.729-7.234,17.571-7.222,17.66l.018.14-.008.141a22.6,22.6,0,0,0,.837,6.279,24.564,24.564,0,0,0,7.384,12.1,27.412,27.412,0,0,0,10.9,6.106q.269.077.531.145c-.279-.319-.425-.513-.854-1.086-.343-.458-.86-1.149-1.806-2.384a36.436,36.436,0,0,1-5.01-10.037l-.264-.863.064-.064-.071-.257a38.11,38.11,0,0,1-1.617-10.025,42.474,42.474,0,0,1,.816-7.893c.2-1.017.431-1.968.647-2.679a8.059,8.059,0,0,1,.313-.881,2.719,2.719,0,0,1,.161-.312c.287-1.1,1.36-4.4,4.951-9.941A35.891,35.891,0,0,1,1414.484,8139.153Zm20.076,13.7a52.626,52.626,0,0,1,1.155,5.252c.056.339.107.643.155.922a25.5,25.5,0,0,1,.387,6.558,31.809,31.809,0,0,1-1.243,8.029c-.145.578-.295,1.175-.458,1.852a32.952,32.952,0,0,1-3.989,8.563,41.965,41.965,0,0,1-3.6,4.981,24.827,24.827,0,0,0,11.835-6.66,25.573,25.573,0,0,0,6.809-11.987,22.009,22.009,0,0,0,.736-5.977l-.006-.1.007-.091a23.251,23.251,0,0,0-.674-6.079,25.764,25.764,0,0,0-6.545-12.128,24.688,24.688,0,0,0-12.272-6.874,29.353,29.353,0,0,1,2.591,3.484C1433.647,8149.17,1434.428,8152.187,1434.56,8152.858Z" transform="translate(-73 -821)"/>
    <path id="Path_47" data-name="Path 47" d="M1393.489,8165.553a1.462,1.462,0,0,0,.431-.079l-.97-2.839c.241-.082.241-.082,1.1-.085l1.741,0,6.182-.007c4.521,0,10.818-.006,18.717-.008,13.449,0,27.063,0,27.2,0v3C1429.46,8165.527,1394.368,8165.532,1393.489,8165.553Z" transform="translate(-73 -821)"/>
    <path id="Path_48" data-name="Path 48" d="M21.505,10.357c-.184,0-.367,0-.552,0A38.578,38.578,0,0,1,10.342,8.859,24.676,24.676,0,0,1,3.558,5.707,14.6,14.6,0,0,1-1.15.909L1.521-.458,1.515-.468A12.23,12.23,0,0,0,5.43,3.35c2.682,1.774,7.559,3.909,15.559,4S33.994,5.3,36.781,3.479A13.323,13.323,0,0,0,40.934-.5l0,.009L43.564.943A15.734,15.734,0,0,1,38.62,5.86a24.916,24.916,0,0,1-6.959,3.169A36.656,36.656,0,0,1,21.505,10.357Z" transform="translate(1326.5 7325.5)"/>
    <path id="Path_49" data-name="Path 49" d="M40.934,9.583A13.323,13.323,0,0,0,36.78,5.6c-2.786-1.82-7.788-3.97-15.792-3.874s-12.876,2.23-15.559,4A12.23,12.23,0,0,0,1.515,9.551l.006-.011L-1.15,8.174a14.6,14.6,0,0,1,4.708-4.8A24.676,24.676,0,0,1,10.342.223,38.577,38.577,0,0,1,20.953-1.271,37.069,37.069,0,0,1,31.661.053a24.916,24.916,0,0,1,6.959,3.17A15.735,15.735,0,0,1,43.564,8.14L40.929,9.574Z" transform="translate(1326.5 7351.5)"/>
  </g>
</svg>
