<svg xmlns="http://www.w3.org/2000/svg" width="42" height="42" viewBox="0 0 89 32" id="basic_mail">
  <path  d="M1077.323,8176.576h-1.345c-4.537,0-10.845-.014-18.749-.036-13.455-.037-27.055-.09-27.191-.091a1.5,1.5,0,0,1-1.494-1.522c.178-12.173.419-30.6.359-32.073a1.5,1.5,0,0,1,.32-1.141,1.526,1.526,0,0,1,.683-.476v-.081h.425c.04,0,.081,0,.121,0h53.688a1.5,1.5,0,0,1,1.409.985l.372,0c0,.082.111,8.285.189,16.4.046,4.767.072,8.572.077,11.308,0,1.63,0,2.9-.012,3.764-.006.484-.015.845-.026,1.1a1.722,1.722,0,0,1-.867,1.667,2.573,2.573,0,0,1-1.306.178c-.4.005-1,.01-1.776.013C1081.016,8176.574,1079.379,8176.576,1077.323,8176.576Zm-45.757-3.122c14.113.054,44.84.156,51.611.11.053-4.2-.081-17.759-.216-28.359l-24.753,16.131a1.5,1.5,0,0,1-1.634,0c-5.841-3.779-19.288-12.474-24.667-15.935,0,.669-.01,1.459-.017,2.364-.024,2.686-.066,6.42-.125,11.1C1031.69,8164.78,1031.605,8170.74,1031.566,8173.455Zm3.944-29.3c2.235,1.44,5.33,3.439,9.2,5.94,5.31,3.431,10.673,6.9,12.674,8.194l21.69-14.134Z" transform="translate(-1028.545 -8141.155)"/>
</svg>

