<svg xmlns="http://www.w3.org/2000/svg"  viewBox="0 0 89 32" id="basic_settings">
  <path id="basic_settings" data-name="Intersection 2" d="M10.151-732.746-9.123-752.02l2.624-2.625-2.233-2.232-21.343,20.991-6.794,1.68-3.439-3.237,1.986-6.807.334-.338,20.619-20.928-9.224-9.224-3,3-7.238-12.063,3.819-3.821,12.063,7.238-3,3,9.205,9.2,5.517-5.6v-2.731a10.087,10.087,0,0,1,2.513-7.13c2.159-2.318,5.623-3.493,10.3-3.493H6.445l-3.7,8.554,1.7,1.772,8.454-3.964v2.949c0,4.677-1.172,8.141-3.483,10.3a10.09,10.09,0,0,1-7.14,2.513H-.455l-5.6,5.512,2.211,2.211,2.624-2.624,19.274,19.274ZM-3.82-752.02l13.971,13.971,2.6-2.6L-1.222-754.618ZM-36.064-738.6l.278.262,3.814-.944,29.982-29.486H2.278a6.16,6.16,0,0,0,4.858-1.846,8.108,8.108,0,0,0,1.782-4.157l-5.306,2.487-5.3-5.47,2.336-5.379a8.2,8.2,0,0,0-4.29,1.755,6.131,6.131,0,0,0-1.825,4.86v4.268l-29.515,29.957Zm4.437-43.825,2.78,4.633,1.853-1.853Z" transform="translate(40.308 787.627)"/>
</svg>
