<svg xmlns="http://www.w3.org/2000/svg" width="1417.811" height="1664.817" viewBox="0 0 1417.811 1664.817">
  <path id="Path_1" data-name="Path 1" d="M1073.574,3155.427a40.767,40.767,0,0,1-9.559-11.438,30.528,30.528,0,0,1-3.667-12.8l4.991-.3a25.571,25.571,0,0,0,3.073,10.722,35.821,35.821,0,0,0,8.407,10.014Zm2.528-54.486-4.149-2.791c5.368-7.979,12.583-16.609,22.056-26.383l3.59,3.48C1088.335,3084.805,1081.3,3093.21,1076.1,3100.941Zm45.977-49.037-3.341-3.719c7.279-6.539,15.7-13.847,25.74-22.342l3.23,3.817C1137.7,3038.123,1129.321,3045.4,1122.079,3051.9Zm51.7-44.031-3.193-3.848,4.645-3.854c7-5.806,14.237-11.809,21.494-17.876l3.207,3.836c-7.264,6.073-14.505,12.08-21.508,17.888Zm52.128-43.733-3.261-3.79c9.252-7.958,17.589-15.292,25.486-22.419l3.35,3.712C1243.554,2948.8,1235.188,2956.156,1225.906,2964.14Zm50.51-45.736-3.474-3.6c8.475-8.187,16.5-16.285,23.849-24.068l3.635,3.433C1293.024,2902.011,1284.946,2910.164,1276.416,2918.4Zm46.725-49.73-3.838-3.206c7.529-9.013,14.478-18.012,20.655-26.746l4.082,2.887C1337.787,2850.452,1330.755,2859.558,1323.141,2868.674Zm39.233-56-4.365-2.437a242.158,242.158,0,0,0,14.4-30.384l4.662,1.806A247.161,247.161,0,0,1,1362.374,2812.679Zm24.328-64.035-4.908-.953a160.317,160.317,0,0,0,2.973-33.281l5-.087A165.353,165.353,0,0,1,1386.7,2748.644Zm-6.145-67.354a172.07,172.07,0,0,0-10.981-31.6l4.546-2.082a177.1,177.1,0,0,1,11.3,32.523Zm-28.943-59.635a276.353,276.353,0,0,0-22.553-25l3.5-3.567a281.451,281.451,0,0,1,22.963,25.457Zm-47.905-47.209c-8.623-6.753-17.9-13.29-27.583-19.43l2.678-4.222c9.819,6.229,19.235,12.862,27.987,19.716Zm-56.87-36.252c-9.684-5.037-19.966-9.9-30.56-14.465l1.977-4.592c10.706,4.61,21.1,9.529,30.89,14.622Zm-62.052-26.855c-10.26-3.686-21.083-7.25-32.168-10.6l1.445-4.787c11.167,3.37,22.073,6.962,32.414,10.677Zm-64.822-19.665c-10.506-2.684-21.61-5.307-33.006-7.8l1.067-4.885c11.452,2.5,22.614,5.138,33.176,7.836Zm-66.253-14.559c-10.443-1.982-21.376-3.938-33.426-5.98l.835-4.93c12.082,2.048,23.047,4.009,33.523,6Zm-66.958-11.451c-4.272-.678-8.523-1.348-12.634-2-7.29-1.149-14.176-2.235-20.946-3.324l.794-4.937c6.762,1.088,13.644,2.173,20.93,3.322,4.112.648,8.365,1.318,12.639,2ZM919.6,2454.6c-13.49-2.515-24.41-4.924-33.384-7.365l1.312-4.825c8.842,2.405,19.633,4.784,32.988,7.274Zm-65.432-20.809a28.8,28.8,0,0,1-6.566-6.575,18.842,18.842,0,0,1-3.216-7.915,20.909,20.909,0,0,1,.694-8.945,37.271,37.271,0,0,1,4.575-9.681l4.21,2.7a32.332,32.332,0,0,0-3.977,8.359,15.965,15.965,0,0,0-.558,6.812c.629,4.113,3.188,7.787,7.823,11.233Zm24.3-51.69-2.689-4.216c9.734-6.208,19.343-12.417,28.562-18.456l2.74,4.183C897.84,2369.662,888.213,2375.883,878.462,2382.1Zm56.957-37.335-2.8-4.144c9.593-6.479,19.008-12.948,27.985-19.229l2.866,4.1C954.473,2331.787,945.034,2338.272,935.419,2344.767Zm55.765-39.059-2.946-4.04c9.4-6.858,18.55-13.69,27.185-20.308l3.041,3.969C1009.8,2291.97,1000.619,2298.826,991.184,2305.707Zm53.991-41.453-3.157-3.878c9.117-7.422,17.844-14.792,25.939-21.9l3.3,3.756C1063.115,2249.382,1054.34,2256.792,1045.174,2264.254Zm51.175-45.149-3.483-3.587c8.533-8.286,16.43-16.471,23.473-24.328l3.723,3.338C1112.943,2202.469,1104.965,2210.739,1096.35,2219.1Zm45.329-51.143-4.046-2.937a204.657,204.657,0,0,0,17.59-28.535l4.474,2.231A209.641,209.641,0,0,1,1141.678,2167.962Zm29.333-61.938-4.921-.889a81.626,81.626,0,0,0,1.32-16.856,72.165,72.165,0,0,0-2.215-15.79l4.843-1.242a77.187,77.187,0,0,1,2.369,16.885A86.642,86.642,0,0,1,1171.012,2106.023Zm-20.512-62.818a117.068,117.068,0,0,0-10.628-11.955,156.278,156.278,0,0,0-13.045-11.438l3.092-3.929a161.284,161.284,0,0,1,13.464,11.808,122.067,122.067,0,0,1,11.083,12.469Zm-51.624-42.056c-8.99-5.186-19.1-10.394-30.037-15.479l2.107-4.534c11.074,5.147,21.311,10.423,30.428,15.682Zm-61.154-28.79c-9.836-3.9-20.52-7.87-31.758-11.811l1.655-4.718c11.3,3.963,22.047,7.96,31.944,11.881Zm-63.955-22.566c-10.142-3.238-21.057-6.594-32.443-9.975l1.423-4.793c11.418,3.391,22.366,6.757,32.54,10ZM908.694,1930.4c-10.319-2.9-21.035-5.852-32.758-9.019l1.3-4.827c11.74,3.172,22.472,6.126,32.807,9.032Zm-65.6-17.763c-9.892-2.6-20.65-5.4-32.889-8.567l1.252-4.841c12.245,3.166,23.01,5.97,32.908,8.573ZM777.284,1895.6l-9.969-2.559c-7.5-1.926-15.263-3.918-22.968-5.9l1.245-4.842c7.7,1.981,15.463,3.973,22.966,5.9l9.97,2.56Zm-65.864-16.961c-11.843-3.074-22.605-5.887-32.9-8.6l1.275-4.835c10.29,2.713,21.046,5.525,32.883,8.6Zm-65.775-17.36c-11.284-3.041-22.324-6.055-32.812-8.959l1.334-4.819c10.477,2.9,21.505,5.912,32.779,8.95ZM580.079,1843.1c-11.123-3.181-22.114-6.381-32.666-9.511l1.422-4.794c10.536,3.126,21.511,6.321,32.618,9.5Zm-65.237-19.371c-11.006-3.4-21.924-6.851-32.451-10.254l1.538-4.758c10.506,3.4,21.4,6.839,32.389,10.234Zm-64.763-20.952c-10.888-3.694-21.7-7.46-32.148-11.194l1.683-4.708c10.419,3.725,21.209,7.482,32.072,11.167Zm-64.1-22.937c-10.746-4.061-21.422-8.215-31.732-12.348l1.86-4.641c10.279,4.12,20.924,8.263,31.639,12.312Zm-63.2-25.362c-10.564-4.508-21.05-9.131-31.165-13.741l2.074-4.55c10.079,4.593,20.527,9.2,31.054,13.692ZM260.8,1726.2c-10.322-5.043-20.547-10.224-30.394-15.4l2.327-4.426c9.8,5.154,19.985,10.313,30.262,15.335Zm-60.3-31.741c-9.992-5.676-19.863-11.516-29.341-17.358l2.624-4.256c9.427,5.811,19.247,11.62,29.187,17.267Zm-58.009-35.806c-9.538-6.411-18.924-13.014-27.9-19.626l2.966-4.025c8.917,6.57,18.244,13.131,27.722,19.5Zm-54.886-40.5c-8.912-7.24-17.635-14.7-25.929-22.18l3.348-3.713c8.23,7.421,16.888,14.827,25.733,22.013ZM36.96,1572.428c-8.072-8.14-15.915-16.534-23.312-24.949l3.755-3.3c7.331,8.34,15.1,16.66,23.107,24.729Zm-45.035-51.3c-6.98-9.049-13.69-18.38-19.947-27.735l4.156-2.78c6.194,9.262,12.838,18.5,19.749,27.461Z" transform="translate(28.021 -1490.61)" fill="#707070" opacity="0.28"/>
</svg>
